ffmpeg started on 2023-11-29 at 01:02:46
Report written to "ffmpeg-20231129-010246.log"
Log level: 48
Command line:
ffmpeg -r 10 -i "_tmp%07d.png" -vframes 4 -vcodec h264 -pix_fmt yuv420p -report -metadata "artist=HazyResearch" -y animations/HeLaS3.H10-0.E1-1.S1-1.lr5.0.ep200.seed0.mp4
ffmpeg version 4.4 Copyright (c) 2000-2021 the FFmpeg developers
  built with Apple clang version 12.0.0 (clang-1200.0.32.29)
  configuration: --prefix=/usr/local/Cellar/ffmpeg/4.4_1 --enable-shared --enable-pthreads --enable-version3 --enable-avresample --cc=clang --host-cflags= --host-ldflags= --enable-ffplay --enable-gnutls --enable-gpl --enable-libaom --enable-libbluray --enable-libdav1d --enable-libmp3lame --enable-libopus --enable-librav1e --enable-librubberband --enable-libsnappy --enable-libsrt --enable-libtesseract --enable-libtheora --enable-libvidstab --enable-libvorbis --enable-libvpx --enable-libwebp --enable-libx264 --enable-libx265 --enable-libxml2 --enable-libxvid --enable-lzma --enable-libfontconfig --enable-libfreetype --enable-frei0r --enable-libass --enable-libopencore-amrnb --enable-libopencore-amrwb --enable-libopenjpeg --enable-libspeex --enable-libsoxr --enable-libzmq --enable-libzimg --disable-libjack --disable-indev=jack --enable-videotoolbox
  libavutil      56. 70.100 / 56. 70.100
  libavcodec     58.134.100 / 58.134.100
  libavformat    58. 76.100 / 58. 76.100
  libavdevice    58. 13.100 / 58. 13.100
  libavfilter     7.110.100 /  7.110.100
  libavresample   4.  0.  0 /  4.  0.  0
  libswscale      5.  9.100 /  5.  9.100
  libswresample   3.  9.100 /  3.  9.100
  libpostproc    55.  9.100 / 55.  9.100
Splitting the commandline.
Reading option '-r' ... matched as option 'r' (set frame rate (Hz value, fraction or abbreviation)) with argument '10'.
Reading option '-i' ... matched as input url with argument '_tmp%07d.png'.
Reading option '-vframes' ... matched as option 'vframes' (set the number of video frames to output) with argument '4'.
Reading option '-vcodec' ... matched as option 'vcodec' (force video codec ('copy' to copy stream)) with argument 'h264'.
Reading option '-pix_fmt' ... matched as option 'pix_fmt' (set pixel format) with argument 'yuv420p'.
Reading option '-report' ... matched as option 'report' (generate a report) with argument '1'.
Reading option '-metadata' ... matched as option 'metadata' (add metadata) with argument 'artist=HazyResearch'.
Reading option '-y' ... matched as option 'y' (overwrite output files) with argument '1'.
Reading option 'animations/HeLaS3.H10-0.E1-1.S1-1.lr5.0.ep200.seed0.mp4' ... matched as output url.
Finished splitting the commandline.
Parsing a group of options: global .
Applying option report (generate a report) with argument 1.
Applying option y (overwrite output files) with argument 1.
Successfully parsed a group of options.
Parsing a group of options: input url _tmp%07d.png.
Applying option r (set frame rate (Hz value, fraction or abbreviation)) with argument 10.
Successfully parsed a group of options.
Opening an input file: _tmp%07d.png.
[image2 @ 0x7fe29a808200] Opening '_tmp0000000.png' for reading
[file @ 0x7fe297714140] Setting default whitelist 'file,crypto,data'
[AVIOContext @ 0x7fe2977142c0] Statistics: 101675 bytes read, 0 seeks
[image2 @ 0x7fe29a808200] Opening '_tmp0000001.png' for reading
[file @ 0x7fe298504140] Setting default whitelist 'file,crypto,data'
[AVIOContext @ 0x7fe298504300] Statistics: 133291 bytes read, 0 seeks
[image2 @ 0x7fe29a808200] Opening '_tmp0000002.png' for reading
[file @ 0x7fe297714240] Setting default whitelist 'file,crypto,data'
[AVIOContext @ 0x7fe2977145c0] Statistics: 146797 bytes read, 0 seeks
[image2 @ 0x7fe29a808200] Opening '_tmp0000003.png' for reading
[file @ 0x7fe2977145c0] Setting default whitelist 'file,crypto,data'
[AVIOContext @ 0x7fe297714640] Statistics: 147429 bytes read, 0 seeks
Input #0, image2, from '_tmp%07d.png':
  Duration: 00:00:00.16, start: 0.000000, bitrate: N/A
  Stream #0:0, 4, 1/25: Video: png, rgba(pc), 1080x1080 [SAR 4251:4251 DAR 1:1], 25 fps, 25 tbr, 25 tbn, 25 tbc
Successfully opened the file.
Parsing a group of options: output url animations/HeLaS3.H10-0.E1-1.S1-1.lr5.0.ep200.seed0.mp4.
Applying option vframes (set the number of video frames to output) with argument 4.
Applying option vcodec (force video codec ('copy' to copy stream)) with argument h264.
Applying option pix_fmt (set pixel format) with argument yuv420p.
Applying option metadata (add metadata) with argument artist=HazyResearch.
Successfully parsed a group of options.
Opening an output file: animations/HeLaS3.H10-0.E1-1.S1-1.lr5.0.ep200.seed0.mp4.
Matched encoder 'libx264' for codec 'h264'.
[file @ 0x7fe298106200] Setting default whitelist 'file,crypto,data'
Successfully opened the file.
detected 8 logical cores
Stream mapping:
  Stream #0:0 -> #0:0 (png (native) -> h264 (libx264))
Press [q] to stop, [?] for help
cur_dts is invalid st:0 (0) [init:0 i_done:0 finish:0] (this is harmless if it occurs once at the start per stream)
cur_dts is invalid st:0 (0) [init:0 i_done:0 finish:0] (this is harmless if it occurs once at the start per stream)
cur_dts is invalid st:0 (0) [init:0 i_done:0 finish:0] (this is harmless if it occurs once at the start per stream)
cur_dts is invalid st:0 (0) [init:0 i_done:0 finish:0] (this is harmless if it occurs once at the start per stream)
cur_dts is invalid st:0 (0) [init:0 i_done:0 finish:0] (this is harmless if it occurs once at the start per stream)
[graph 0 input from stream 0:0 @ 0x7fe298304980] Setting 'video_size' to value '1080x1080'
[graph 0 input from stream 0:0 @ 0x7fe298304980] Setting 'pix_fmt' to value '26'
[graph 0 input from stream 0:0 @ 0x7fe298304980] Setting 'time_base' to value '1/10'
[graph 0 input from stream 0:0 @ 0x7fe298304980] Setting 'pixel_aspect' to value '4251/4251'
[graph 0 input from stream 0:0 @ 0x7fe298304980] Setting 'frame_rate' to value '10/1'
[graph 0 input from stream 0:0 @ 0x7fe298304980] w:1080 h:1080 pixfmt:rgba tb:1/10 fr:10/1 sar:4251/4251
[format @ 0x7fe298504280] Setting 'pix_fmts' to value 'yuv420p'
[auto_scaler_0 @ 0x7fe298604180] Setting 'flags' to value 'bicubic'
[auto_scaler_0 @ 0x7fe298604180] w:iw h:ih flags:'bicubic' interl:0
[format @ 0x7fe298504280] auto-inserting filter 'auto_scaler_0' between the filter 'Parsed_null_0' and the filter 'format'
[AVFilterGraph @ 0x7fe298504140] query_formats: 4 queried, 2 merged, 1 already done, 0 delayed
[auto_scaler_0 @ 0x7fe298604180] w:1080 h:1080 fmt:rgba sar:4251/4251 -> w:1080 h:1080 fmt:yuv420p sar:1/1 flags:0x4
[libx264 @ 0x7fe299809400] using mv_range_thread = 40
[libx264 @ 0x7fe299809400] using SAR=1/1
[libx264 @ 0x7fe299809400] using cpu capabilities: MMX2 SSE2Fast SSSE3 SSE4.2 AVX FMA3 BMI2 AVX2
[libx264 @ 0x7fe299809400] profile High, level 3.2, 4:2:0, 8-bit
[libx264 @ 0x7fe299809400] 264 - core 161 r3049 55d517b - H.264/MPEG-4 AVC codec - Copyleft 2003-2021 - http://www.videolan.org/x264.html - options: cabac=1 ref=3 deblock=1:0:0 analyse=0x3:0x113 me=hex subme=7 psy=1 psy_rd=1.00:0.00 mixed_ref=1 me_range=16 chroma_me=1 trellis=1 8x8dct=1 cqm=0 deadzone=21,11 fast_pskip=1 chroma_qp_offset=-2 threads=12 lookahead_threads=2 sliced_threads=0 nr=0 decimate=1 interlaced=0 bluray_compat=0 constrained_intra=0 bframes=3 b_pyramid=2 b_adapt=1 b_bias=0 direct=1 weightb=1 open_gop=0 weightp=2 keyint=250 keyint_min=10 scenecut=40 intra_refresh=0 rc_lookahead=40 rc=crf mbtree=1 crf=23.0 qcomp=0.60 qpmin=0 qpmax=69 qpstep=4 ip_ratio=1.40 aq=1:1.00
Output #0, mp4, to 'animations/HeLaS3.H10-0.E1-1.S1-1.lr5.0.ep200.seed0.mp4':
  Metadata:
    artist          : HazyResearch
    encoder         : Lavf58.76.100
  Stream #0:0, 0, 1/10240: Video: h264 (avc1 / 0x31637661), yuv420p(tv, progressive), 1080x1080 [SAR 1:1 DAR 1:1], q=2-31, 10 fps, 10240 tbn
    Metadata:
      encoder         : Lavc58.134.100 libx264
    Side data:
      cpb: bitrate max/min/avg: 0/0/0 buffer size: 0 vbv_delay: N/A
Clipping frame in rate conversion by 0.000008
frame=    1 fps=0.0 q=0.0 size=       0kB time=00:00:00.00 bitrate=N/A speed=   0x    cur_dts is invalid st:0 (0) [init:1 i_done:0 finish:0] (this is harmless if it occurs once at the start per stream)
cur_dts is invalid st:0 (0) [init:1 i_done:0 finish:0] (this is harmless if it occurs once at the start per stream)
cur_dts is invalid st:0 (0) [init:1 i_done:0 finish:0] (this is harmless if it occurs once at the start per stream)
No more output streams to write to, finishing.
[libx264 @ 0x7fe299809400] frame=   0 QP=18.44 NAL=3 Slice:I Poc:0   I:4624 P:0    SKIP:0    size=20525 bytes
[libx264 @ 0x7fe299809400] frame=   1 QP=27.01 NAL=2 Slice:P Poc:6   I:482  P:77   SKIP:4065 size=24559 bytes
[libx264 @ 0x7fe299809400] frame=   2 QP=26.66 NAL=2 Slice:B Poc:2   I:269  P:285  SKIP:4070 size=21192 bytes
[libx264 @ 0x7fe299809400] frame=   3 QP=26.95 NAL=0 Slice:B Poc:4   I:212  P:392  SKIP:4020 size=22562 bytes
frame=    4 fps=0.0 q=-1.0 Lsize=      88kB time=00:00:00.10 bitrate=7231.5kbits/s speed=0.892x    
video:87kB audio:0kB subtitle:0kB other streams:0kB global headers:0kB muxing overhead: 1.065588%
Input file #0 (_tmp%07d.png):
  Input stream #0:0 (video): 4 packets read (529192 bytes); 4 frames decoded; 
  Total: 4 packets (529192 bytes) demuxed
Output file #0 (animations/HeLaS3.H10-0.E1-1.S1-1.lr5.0.ep200.seed0.mp4):
  Output stream #0:0 (video): 4 frames encoded; 4 packets muxed (89528 bytes); 
  Total: 4 packets (89528 bytes) muxed
4 frames successfully decoded, 0 decoding errors
[AVIOContext @ 0x7fe2981063c0] Statistics: 2 seeks, 4 writeouts
[libx264 @ 0x7fe299809400] frame I:1     Avg QP:18.44  size: 20525
[libx264 @ 0x7fe299809400] frame P:1     Avg QP:27.01  size: 24559
[libx264 @ 0x7fe299809400] frame B:2     Avg QP:26.81  size: 21877
[libx264 @ 0x7fe299809400] consecutive B-frames: 25.0%  0.0% 75.0%  0.0%
[libx264 @ 0x7fe299809400] mb I  I16..4: 43.8% 46.6%  9.6%
[libx264 @ 0x7fe299809400] mb P  I16..4:  0.1%  1.2%  9.1%  P16..4:  1.0%  0.5%  0.2%  0.0%  0.0%    skip:87.9%
[libx264 @ 0x7fe299809400] mb B  I16..4:  0.1%  0.5%  4.6%  B16..8:  3.2%  2.5%  1.2%  direct: 0.4%  skip:87.5%  L0:49.7% L1:40.8% BI: 9.5%
[libx264 @ 0x7fe299809400] 8x8 transform intra:40.5% inter:10.2%
[libx264 @ 0x7fe299809400] coded y,uvDC,uvAC intra: 16.7% 13.0% 12.4% inter: 2.2% 2.4% 2.3%
[libx264 @ 0x7fe299809400] i16 v,h,dc,p: 88%  8%  4%  0%
[libx264 @ 0x7fe299809400] i8 v,h,dc,ddl,ddr,vr,hd,vl,hu: 75% 11% 14%  0%  0%  0%  0%  0%  0%
[libx264 @ 0x7fe299809400] i4 v,h,dc,ddl,ddr,vr,hd,vl,hu: 28% 20% 21%  6%  5%  6%  5%  5%  5%
[libx264 @ 0x7fe299809400] i8c dc,h,v,p: 93%  3%  3%  1%
[libx264 @ 0x7fe299809400] Weighted P-Frames: Y:0.0% UV:0.0%
[libx264 @ 0x7fe299809400] ref B L0: 82.8% 17.2%
[libx264 @ 0x7fe299809400] kb/s:1776.76
